<?xml version="1.0" standalone="no"?>
<!DOCTYPE svg PUBLIC "-//W3C//DTD SVG 20010904//EN"
 "http://www.w3.org/TR/2001/REC-SVG-20010904/DTD/svg10.dtd">
<svg version="1.0" xmlns="http://www.w3.org/2000/svg"
 width="1200.000000pt" height="500.000000pt" viewBox="0 0 1200.000000 500.000000"
 preserveAspectRatio="xMidYMid meet">
<metadata>
Created by potrace 1.16, written by Peter Selinger 2001-2019
</metadata>
<g transform="translate(0.000000,500.000000) scale(0.100000,-0.100000)"
fill="#000000" stroke="none">
<path d="M3707 4352 c-294 -151 -894 -501 -1249 -728 -185 -119 -205 -136
-217 -182 -58 -218 -64 -1415 -9 -1807 10 -73 14 -83 48 -116 160 -153 1543
-949 1650 -949 113 0 1520 806 1653 947 37 40 45 92 58 418 13 308 6 1229 -11
1395 -14 145 -20 157 -93 211 -235 174 -1145 705 -1474 861 -56 26 -116 48
-133 48 -20 0 -102 -36 -223 -98z m353 -129 c319 -149 1229 -685 1362 -801 25
-23 38 -44 42 -70 36 -224 36 -1431 0 -1679 -8 -54 -33 -77 -219 -198 -444
-290 -1233 -725 -1316 -725 -48 0 -311 134 -709 363 -377 216 -760 457 -804
505 -27 30 -45 171 -56 437 -25 600 1 1281 51 1342 34 41 500 329 934 578 402
231 561 310 600 299 11 -4 63 -26 115 -51z"/>
<path d="M3465 3106 l-60 -23 -3 -577 -2 -577 22 7 c13 4 45 14 72 24 l50 16
18 110 c31 184 71 307 115 356 20 22 59 23 67 2 3 -9 6 -103 6 -210 0 -215 6
-241 60 -269 58 -30 124 -12 178 49 27 31 31 41 21 52 -10 13 -15 12 -35 -6
-13 -13 -32 -20 -46 -18 l-23 3 -5 245 c-4 215 -7 249 -23 273 -24 37 -60 50
-105 37 -81 -21 -150 -115 -198 -265 l-22 -70 -1 433 c-1 339 -4 432 -13 431
-7 0 -40 -10 -73 -23z"/>
<path d="M4925 3000 c-77 -26 -80 -28 -77 -56 6 -47 41 -226 46 -231 5 -5 76
16 76 22 0 2 9 67 21 145 11 78 19 143 17 145 -2 1 -39 -10 -83 -25z"/>
<path d="M2955 2586 c-146 -46 -246 -166 -261 -313 -8 -76 21 -181 66 -235 76
-91 221 -116 338 -57 56 28 182 139 182 161 0 5 -7 11 -15 14 -10 4 -34 -11
-64 -39 -72 -68 -124 -91 -185 -83 -110 13 -185 110 -194 249 -5 84 7 133 45
178 34 40 73 59 123 59 47 0 73 -11 112 -48 l27 -25 56 29 c30 16 55 32 55 36
0 3 -16 20 -36 36 -60 50 -163 65 -249 38z"/>
<path d="M4325 2577 c-58 -23 -91 -46 -132 -90 -154 -166 -149 -438 9 -518 45
-23 124 -27 159 -9 35 18 88 71 106 105 l16 30 12 -47 c15 -60 28 -75 76 -89
32 -10 46 -9 84 5 54 21 110 83 93 103 -9 11 -15 10 -34 -7 -13 -13 -32 -20
-46 -18 l-23 3 -3 183 c-1 100 -6 182 -10 182 -4 0 -36 -11 -72 -24 l-65 -24
-6 -83 c-8 -108 -25 -164 -65 -205 -56 -60 -139 -41 -178 40 -45 96 -41 200
12 300 59 110 149 132 228 55 l31 -30 56 23 c32 13 57 28 57 35 0 18 -71 72
-110 83 -47 13 -158 11 -195 -3z"/>
<path d="M4923 2567 l-63 -22 0 -253 c0 -207 3 -258 15 -282 17 -33 62 -60 97
-60 64 1 171 87 146 117 -9 11 -15 10 -34 -7 -13 -13 -32 -20 -46 -18 l-23 3
-3 273 c-2 208 -5 272 -15 271 -6 0 -40 -10 -74 -22z"/>
<path d="M7810 4275 c-63 -7 -134 -18 -157 -24 -152 -41 -362 -126 -453 -183
-30 -18 -77 -47 -104 -63 -57 -34 -230 -176 -264 -217 -13 -16 -29 -25 -35
-21 -7 3 -9 3 -5 -2 11 -11 -12 -36 -26 -28 -6 3 -8 3 -4 -2 8 -9 -92 -131
-105 -127 -4 1 -6 -2 -3 -7 3 -5 -8 -26 -25 -47 -61 -77 -181 -293 -215 -389
-116 -325 -126 -376 -129 -685 -4 -338 13 -438 128 -750 39 -108 147 -301 219
-393 21 -27 35 -54 31 -59 -3 -6 -1 -8 5 -5 5 4 26 -14 45 -41 20 -26 45 -56
56 -66 11 -10 18 -22 16 -26 -3 -4 2 -13 10 -20 8 -7 15 -9 15 -5 0 4 24 -14
52 -41 29 -27 53 -52 53 -56 0 -5 3 -7 6 -5 3 1 26 -14 50 -34 53 -43 228
-158 284 -187 181 -92 366 -149 560 -173 200 -24 251 -24 450 0 195 24 380 81
560 173 81 42 262 167 341 236 45 39 84 69 88 67 3 -3 4 -2 1 2 -8 10 16 33
28 26 5 -3 7 -2 4 4 -4 5 7 23 24 39 17 16 46 50 66 77 19 26 40 44 45 40 6
-3 8 -1 4 5 -3 5 4 23 17 39 13 15 35 47 49 71 13 23 28 39 32 35 4 -5 6 -3 4
3 -1 6 16 45 40 86 89 156 178 405 208 578 21 123 29 448 15 565 -6 50 -13
110 -16 135 -17 152 -144 478 -251 643 -24 37 -44 70 -44 73 0 25 -247 298
-322 358 -21 16 -35 33 -32 38 3 5 2 7 -3 6 -4 -1 -67 37 -140 85 -73 48 -158
99 -190 113 -32 14 -71 32 -88 39 -263 117 -562 157 -895 120z m810 -1452 l0
-147 28 27 c32 30 91 57 126 57 48 0 105 -31 128 -69 21 -33 23 -49 26 -224
l4 -188 -44 3 -43 3 -2 169 c-1 150 -3 172 -21 195 -42 56 -142 30 -183 -49
-16 -29 -19 -58 -19 -177 l0 -143 -40 0 -40 0 0 338 c0 186 3 342 7 345 3 4
21 7 40 7 l33 0 0 -147z m-1573 -89 c13 -8 30 -25 39 -39 l16 -24 32 33 c80
85 214 53 245 -60 6 -21 11 -112 11 -201 l0 -163 -40 0 -40 0 0 148 c-1 212
-14 252 -84 252 -35 -1 -62 -18 -88 -57 -15 -24 -18 -50 -18 -185 l0 -158 -40
0 -40 0 0 148 c0 160 -9 220 -36 239 -44 32 -114 0 -140 -63 -10 -23 -14 -78
-14 -179 l0 -145 -40 0 -40 0 0 230 0 230 40 0 c37 0 40 -2 40 -27 l0 -27 29
28 c48 46 114 54 168 20z m742 11 c105 -37 154 -111 155 -234 0 -94 -24 -154
-80 -197 -124 -97 -282 -56 -345 89 -31 73 -24 178 17 243 33 54 64 79 120 99
51 18 82 18 133 0z m518 0 c35 -11 62 -27 87 -55 20 -22 36 -44 36 -50 0 -5
-13 -16 -29 -25 -28 -14 -30 -14 -69 25 -33 33 -47 40 -78 40 -83 0 -138 -68
-138 -170 0 -101 55 -170 137 -170 47 0 89 21 111 55 16 24 18 25 46 10 17 -9
30 -20 30 -27 0 -6 -19 -30 -43 -53 -83 -83 -201 -86 -289 -7 -55 50 -78 102
-78 182 0 84 12 126 51 173 32 39 74 65 124 78 44 10 47 10 102 -6z m1023 -13
c67 -33 76 -60 83 -245 3 -91 11 -175 17 -186 10 -20 8 -21 -29 -21 -35 0 -42
4 -47 25 -8 31 -15 31 -43 1 -28 -30 -99 -50 -146 -42 -49 10 -102 59 -116
108 -30 114 62 188 236 188 49 0 55 2 55 20 0 29 -27 78 -49 90 -11 5 -36 10
-57 10 -29 0 -43 -7 -69 -35 -31 -32 -35 -33 -64 -22 -36 13 -38 25 -11 60 48
61 167 86 240 49z"/>
<path d="M7670 2673 c-98 -50 -108 -258 -16 -318 98 -64 205 16 206 153 0 134
-93 215 -190 165z"/>
<path d="M9260 2493 c-14 -2 -40 -6 -58 -9 -71 -11 -96 -81 -46 -131 21 -21
32 -25 66 -20 63 8 118 72 118 137 0 32 -9 34 -80 23z"/>
</g>
</svg>
