<?xml version="1.0" standalone="no"?>
<!DOCTYPE svg PUBLIC "-//W3C//DTD SVG 20010904//EN"
 "http://www.w3.org/TR/2001/REC-SVG-20010904/DTD/svg10.dtd">
<svg version="1.0" xmlns="http://www.w3.org/2000/svg"
 width="193.000000pt" height="217.000000pt" viewBox="0 0 193.000000 217.000000"
 preserveAspectRatio="xMidYMid meet">
<metadata>
Created by potrace 1.16, written by Peter Selinger 2001-2019
</metadata>
<g transform="translate(0.000000,217.000000) scale(0.100000,-0.100000)"
fill="#000000" stroke="none">
<path d="M817 2097 c-196 -102 -680 -389 -764 -455 -38 -29 -47 -134 -47 -557
0 -453 8 -526 57 -567 115 -95 857 -518 909 -518 57 0 811 430 911 520 26 23
29 33 37 125 12 129 12 750 0 880 -8 94 -10 101 -39 125 -116 97 -855 520
-907 520 -8 0 -79 -33 -157 -73z m341 -120 c203 -110 422 -239 549 -323 111
-74 112 -75 120 -122 10 -61 10 -833 0 -894 -7 -43 -13 -51 -70 -91 -87 -61
-272 -173 -472 -285 -202 -113 -282 -152 -313 -152 -60 0 -762 401 -832 475
-15 16 -25 45 -32 97 -13 97 -13 724 0 813 10 61 15 74 44 98 59 50 465 292
693 414 83 44 107 53 138 49 21 -2 97 -36 175 -79z"/>
<path d="M710 1416 l-35 -13 -3 -316 c-3 -346 -6 -328 57 -306 26 9 31 16 31
42 1 90 57 241 88 235 15 -3 18 -21 22 -131 4 -99 8 -130 20 -137 26 -16 75
-11 98 10 25 24 31 50 7 30 -8 -7 -22 -10 -30 -6 -12 4 -15 29 -15 141 0 122
-2 137 -20 155 -25 25 -37 25 -78 0 -33 -20 -82 -105 -82 -142 0 -9 -3 -19 -7
-21 -5 -3 -7 102 -5 234 2 131 0 239 -5 238 -4 0 -24 -6 -43 -13z"/>
<path d="M405 1116 c-39 -18 -80 -62 -99 -108 -36 -85 -5 -182 68 -217 52 -26
79 -26 131 -2 43 20 113 86 102 97 -3 4 -25 -10 -48 -30 -95 -81 -199 -18
-199 119 0 49 4 60 29 86 35 35 86 39 122 10 22 -18 26 -18 53 -4 l30 16 -28
23 c-21 19 -38 24 -79 24 -29 -1 -65 -7 -82 -14z"/>
<path d="M1175 1116 c-95 -43 -150 -177 -111 -271 15 -36 67 -75 99 -75 31 0
77 30 97 63 l20 32 0 -27 c0 -59 76 -80 120 -33 25 26 21 47 -4 26 -28 -24
-36 -1 -36 100 0 54 -2 99 -4 99 -2 0 -19 -7 -38 -15 -33 -13 -36 -18 -42 -70
-8 -71 -29 -113 -60 -121 -94 -23 -128 156 -46 238 34 33 68 36 98 7 20 -18
27 -19 58 -9 29 10 33 14 23 27 -35 41 -116 55 -174 29z"/>
<path d="M1523 1117 l-33 -11 0 -147 c0 -165 5 -179 64 -179 22 0 40 8 56 25
25 26 21 47 -4 26 -30 -25 -36 -1 -36 150 0 82 -3 148 -7 148 -5 -1 -23 -7
-40 -12z"/>
</g>
</svg>
