<?xml version="1.0" standalone="no"?>
<!DOCTYPE svg PUBLIC "-//W3C//DTD SVG 20010904//EN"
 "http://www.w3.org/TR/2001/REC-SVG-20010904/DTD/svg10.dtd">
<svg version="1.0" xmlns="http://www.w3.org/2000/svg"
 width="600.000000pt" height="497.000000pt" viewBox="0 0 600.000000 497.000000"
 preserveAspectRatio="xMidYMid meet">
<metadata>
Created by potrace 1.16, written by Peter Selinger 2001-2019
</metadata>
<g transform="translate(0.000000,497.000000) scale(0.100000,-0.100000)"
fill="#000000" stroke="none">
<path d="M2840 4793 c-292 -27 -554 -120 -800 -284 -124 -82 -343 -299 -427
-424 -236 -351 -333 -750 -279 -1155 27 -201 74 -348 173 -541 288 -563 885
-915 1516 -893 431 15 816 181 1117 484 317 318 483 718 483 1165 0 543 -253
1032 -698 1350 -301 216 -727 333 -1085 298z m355 -349 c323 -51 627 -235 828
-503 498 -661 278 -1603 -462 -1975 -97 -49 -255 -102 -365 -121 -116 -20
-326 -19 -447 1 -410 70 -771 339 -954 709 -64 131 -90 206 -116 338 -55 281
-20 559 100 813 66 138 138 242 248 355 310 319 718 453 1168 383z"/>
<path d="M2780 3860 l0 -339 32 -46 32 -45 128 0 128 0 30 42 30 41 0 344 0
343 -190 0 -190 0 0 -340z"/>
<path d="M2347 4033 c-20 -14 -37 -30 -37 -34 0 -8 75 -113 247 -346 l53 -73
40 28 c21 15 39 30 40 33 0 6 -274 386 -294 406 -9 10 -19 7 -49 -14z"/>
<path d="M3411 3850 c-83 -115 -151 -211 -151 -213 0 -6 81 -59 85 -55 19 19
295 406 294 413 0 6 -17 22 -38 37 l-39 26 -151 -208z"/>
<path d="M1986 3492 c-31 -94 -56 -175 -56 -180 0 -6 145 -58 323 -116 l323
-105 52 16 52 17 38 120 39 121 -31 45 -32 44 -299 98 c-165 53 -312 100 -327
103 -26 6 -27 6 -82 -163z"/>
<path d="M3563 3556 l-312 -102 -32 -43 -31 -44 39 -121 39 -121 51 -17 52
-16 322 104 c177 57 324 105 325 107 2 1 -23 82 -54 180 -41 131 -60 177 -71
176 -9 0 -156 -47 -328 -103z"/>
<path d="M2175 2963 c-126 -41 -232 -77 -233 -78 -5 -5 18 -78 28 -88 6 -6
473 136 488 148 1 1 -3 23 -10 49 -8 30 -17 46 -28 45 -8 0 -118 -34 -245 -76z"/>
<path d="M3496 2994 c-9 -26 -13 -51 -9 -54 6 -5 371 -125 469 -154 18 -6 23
0 34 39 8 27 9 49 4 54 -5 4 -109 40 -232 80 -123 40 -229 74 -236 77 -9 4
-19 -11 -30 -42z"/>
<path d="M2653 3003 c-40 -14 -58 -36 -243 -289 -110 -151 -200 -277 -200
-279 0 -8 301 -220 308 -216 4 2 96 126 204 275 197 270 198 271 198 324 l0
52 -102 75 c-56 41 -107 75 -113 74 -5 0 -29 -7 -52 -16z"/>
<path d="M3128 2947 l-98 -72 0 -58 0 -57 186 -258 c103 -141 194 -264 203
-273 15 -15 28 -8 166 93 83 60 149 112 149 115 -1 3 -91 128 -200 279 -198
273 -199 275 -248 289 -27 8 -52 15 -55 14 -3 0 -50 -33 -103 -72z"/>
<path d="M2920 2350 l0 -260 50 0 50 0 0 260 0 260 -50 0 -50 0 0 -260z"/>
<path d="M822 988 l3 -63 48 -3 47 -3 0 -222 c0 -122 -5 -240 -10 -262 -11
-49 -50 -85 -91 -85 -36 0 -89 47 -89 79 0 20 -6 21 -85 21 l-86 0 7 -37 c17
-93 56 -146 133 -181 102 -47 217 -32 294 37 74 66 77 81 77 384 l0 267 45 0
45 0 0 65 0 65 -170 0 -171 0 3 -62z"/>
<path d="M3720 975 l0 -75 70 0 70 0 0 75 0 75 -70 0 -70 0 0 -75z"/>
<path d="M1413 846 c-136 -44 -222 -148 -239 -287 -14 -124 57 -258 168 -315
111 -56 219 -52 303 12 l45 34 0 -35 0 -35 110 0 110 0 0 65 0 65 -35 0 -35 0
0 180 0 180 35 0 35 0 0 65 0 65 -110 0 -110 0 0 -42 c0 -41 0 -42 -15 -20
-45 63 -174 97 -262 68z m165 -141 c109 -46 148 -166 89 -268 -38 -64 -87 -92
-163 -92 -51 0 -68 5 -102 29 -116 80 -105 263 20 325 51 25 104 27 156 6z"/>
<path d="M2816 846 c-21 -8 -56 -32 -77 -52 l-39 -38 0 42 0 42 -105 0 -105 0
0 -65 0 -65 40 0 40 0 0 -180 0 -180 -40 0 -40 0 0 -65 0 -65 150 0 150 0 0
65 0 65 -41 0 -41 0 4 138 c3 153 11 176 71 212 41 25 83 25 125 0 51 -31 62
-70 62 -220 l0 -130 -40 0 -40 0 0 -65 0 -65 150 0 150 0 0 65 0 65 -40 0 -40
0 0 133 c0 152 12 188 70 219 47 24 90 23 131 -5 47 -32 58 -71 58 -219 l1
-128 -40 0 -40 0 0 -65 0 -65 150 0 150 0 0 65 0 65 -40 0 -40 0 0 145 c0 174
-11 234 -53 281 -94 108 -276 104 -357 -7 l-27 -38 -24 37 c-46 70 -154 107
-233 78z"/>
<path d="M4375 855 c-5 -2 -26 -6 -46 -9 -20 -4 -54 -22 -77 -42 l-42 -36 0
36 0 36 -115 0 -116 0 3 -62 3 -63 40 -5 40 -5 0 -175 0 -175 -43 -3 -43 -3 3
-62 3 -62 153 -3 152 -3 0 66 0 65 -40 0 -40 0 0 135 c0 160 9 186 73 216 51
22 77 24 122 5 63 -27 75 -62 75 -218 l0 -138 -40 0 -40 0 0 -65 0 -65 150 0
150 0 0 65 0 65 -39 0 -40 0 -3 183 c-3 183 -3 184 -31 224 -15 22 -49 52 -75
65 -44 24 -114 40 -137 33z"/>
<path d="M4954 846 c-143 -46 -232 -183 -222 -339 18 -275 352 -403 546 -209
23 23 48 55 57 71 l16 31 -71 0 c-65 0 -75 -3 -111 -32 -80 -64 -217 -44 -274
40 -50 74 -56 72 226 72 l252 0 -5 78 c-7 122 -68 216 -175 268 -65 32 -174
42 -239 20z m216 -155 c35 -28 77 -88 68 -97 -3 -2 -89 -3 -192 -2 l-186 3 18
35 c57 105 200 135 292 61z"/>
<path d="M2065 832 c-72 -35 -105 -87 -105 -168 0 -94 49 -141 193 -185 59
-18 109 -39 120 -51 40 -47 0 -118 -68 -118 -49 0 -74 15 -91 56 l-14 34 -70
0 -70 0 0 -90 0 -90 55 0 c48 0 55 3 55 19 0 18 3 18 47 -7 98 -55 242 -24
303 65 35 51 36 153 2 201 -29 40 -94 73 -190 98 -84 21 -112 43 -112 84 0 80
112 93 148 17 12 -25 17 -27 78 -27 l64 0 0 85 0 85 -50 0 c-38 0 -50 -4 -50
-15 0 -20 -9 -19 -33 2 -29 27 -159 30 -212 5z"/>
<path d="M3640 775 l0 -65 40 0 40 0 0 -180 0 -180 -40 0 -40 0 0 -65 0 -65
150 0 150 0 0 65 0 65 -40 0 -40 0 0 245 0 245 -110 0 -110 0 0 -65z"/>
</g>
</svg>
