<?xml version="1.0" standalone="no"?>
<!DOCTYPE svg PUBLIC "-//W3C//DTD SVG 20010904//EN"
 "http://www.w3.org/TR/2001/REC-SVG-20010904/DTD/svg10.dtd">
<svg version="1.0" xmlns="http://www.w3.org/2000/svg"
 width="745.000000pt" height="218.000000pt" viewBox="0 0 745.000000 218.000000"
 preserveAspectRatio="xMidYMid meet">
<metadata>
Created by potrace 1.16, written by Peter Selinger 2001-2019
</metadata>
<g transform="translate(0.000000,218.000000) scale(0.100000,-0.100000)"
fill="#000000" stroke="none">
<path d="M3832 1743 c-32 -4 -34 -6 -28 -36 17 -98 28 -462 21 -774 l-7 -343
58 0 c40 0 60 5 68 15 10 14 17 13 61 -7 42 -19 67 -23 155 -23 130 1 185 22
259 99 200 213 162 592 -72 697 -105 48 -303 25 -363 -42 -9 -10 -22 -19 -27
-19 -6 0 -7 77 -3 220 l8 220 -49 -2 c-26 0 -63 -3 -81 -5z m424 -472 c52 -24
109 -91 129 -152 29 -86 18 -233 -22 -314 -26 -52 -84 -104 -136 -121 -64 -21
-157 -15 -218 14 l-46 22 -6 122 c-4 67 -7 176 -7 243 0 132 4 141 69 175 67
35 174 40 237 11z"/>
<path d="M503 1666 c-89 -22 -163 -65 -238 -140 -114 -115 -159 -232 -159
-421 0 -174 42 -286 148 -390 156 -154 359 -187 556 -91 193 93 313 320 296
561 -11 152 -56 257 -150 350 -126 124 -287 171 -453 131z m237 -131 c106 -54
184 -156 209 -273 16 -75 14 -218 -4 -285 -30 -116 -100 -209 -197 -263 -47
-26 -62 -29 -138 -29 -73 1 -93 5 -138 29 -105 54 -177 144 -208 260 -18 68
-18 228 1 299 36 140 131 247 255 288 48 16 163 3 220 -26z"/>
<path d="M1420 1617 c0 -71 -29 -353 -70 -692 -22 -176 -40 -323 -40 -327 0
-5 31 -8 68 -8 l69 0 7 142 c3 78 15 245 26 372 10 127 22 277 26 334 3 56 8
101 11 99 2 -2 19 -58 38 -123 19 -65 74 -229 123 -364 92 -252 123 -343 142
-417 l11 -43 54 0 c47 0 55 3 55 18 0 26 35 124 133 377 47 121 112 297 144
390 32 94 59 161 60 150 7 -55 44 -631 50 -772 l6 -163 74 0 73 0 0 28 c0 15
-11 158 -25 317 -30 363 -45 578 -45 661 l0 64 -103 0 -103 0 -17 -72 c-10
-39 -43 -137 -73 -217 -31 -80 -87 -227 -125 -326 -38 -99 -71 -201 -75 -227
-6 -47 -24 -58 -24 -15 0 31 -46 177 -133 427 -66 190 -104 313 -122 403 l-5
27 -105 0 -105 0 0 -43z"/>
<path d="M2785 1127 l0 -534 89 -7 c213 -15 333 -1 440 49 117 55 221 182 273
332 36 107 39 265 5 365 -54 157 -163 257 -330 305 -41 11 -117 17 -267 20
l-210 5 0 -535z m368 408 c172 -36 287 -158 318 -338 34 -198 -73 -413 -236
-477 -51 -20 -79 -24 -182 -24 -67 -1 -124 2 -128 6 -4 4 -9 192 -13 418 -4
347 -3 413 9 421 22 14 156 10 232 -6z"/>
<path d="M5427 1653 c-2 -5 -10 -26 -17 -48 -21 -67 -102 -268 -225 -556 -105
-244 -185 -442 -185 -455 0 -3 36 -4 81 -2 l81 3 23 90 c13 50 37 126 53 170
l30 80 239 3 238 2 42 -127 c23 -71 47 -149 54 -175 l11 -48 84 0 c52 0 84 4
84 10 0 19 -86 241 -214 552 -70 169 -141 352 -159 407 l-32 100 -92 1 c-50 0
-94 -3 -96 -7z m93 -119 c0 -8 41 -118 90 -246 50 -127 90 -233 90 -234 0 -2
-88 -4 -195 -4 -107 0 -195 3 -195 6 0 3 43 113 95 243 52 131 95 243 95 250
0 7 5 9 10 6 6 -3 10 -13 10 -21z"/>
<path d="M6195 1125 l0 -535 72 0 73 0 -7 213 -6 214 114 6 c246 12 409 107
450 261 6 22 9 77 7 122 -3 72 -7 87 -33 125 -17 24 -51 56 -75 71 -79 48
-142 58 -380 58 l-215 0 0 -535z m455 398 c62 -27 107 -81 115 -138 25 -165
-99 -255 -353 -255 l-82 0 0 93 c0 50 -3 142 -7 204 l-6 112 34 4 c19 3 84 4
144 3 85 -2 120 -7 155 -23z"/>
<path d="M7116 1638 c10 -30 9 -973 0 -1015 l-8 -33 79 0 78 0 0 535 0 535
-78 0 c-77 0 -78 0 -71 -22z"/>
</g>
</svg>
